<svg t="1591319179588" class="icon" viewBox="0 0 1024 1024" version="1.1" xmlns="http://www.w3.org/2000/svg" p-id="5223" width="128" height="128"><path d="M411.52 390.4c0-9.28-1.92-55.36-40.32-55.36s-40.64 46.08-40.64 55.36 1.92 55.36 40.64 55.36 40.32-46.08 40.32-55.36z m241.6 187.52c-38.4 0-40.32 46.08-40.32 55.36s1.92 55.36 40.32 55.36 40.64-46.08 40.64-55.36-2.24-55.04-40.64-55.04z m281.6-8.64a118.08 118.08 0 0 1 0-115.2l25.28-42.24a54.72 54.72 0 0 0-26.88-82.88l-45.44-18.56a118.08 118.08 0 0 1-67.84-93.12l-3.2-50.24a54.72 54.72 0 0 0-70.4-51.2L697.28 128a118.08 118.08 0 0 1-109.44-35.52l-32-38.72a54.72 54.72 0 0 0-87.04 0l-32 38.72A118.08 118.08 0 0 1 326.72 128l-48.96-12.48a54.72 54.72 0 0 0-70.4 51.2l-3.2 50.24A118.08 118.08 0 0 1 136.32 310.4l-46.72 18.56a54.72 54.72 0 0 0-25.6 82.88l25.6 42.56a118.08 118.08 0 0 1 0 115.2L64 612.16a54.72 54.72 0 0 0 26.88 82.88l46.72 18.56a118.08 118.08 0 0 1 67.84 93.12l3.2 50.24a54.72 54.72 0 0 0 70.4 51.2l47.68-12.16a118.08 118.08 0 0 1 109.44 35.52l32 38.72a54.72 54.72 0 0 0 87.04 0l32-38.72A118.08 118.08 0 0 1 697.28 896l48.96 12.48a54.72 54.72 0 0 0 70.4-51.2l3.2-50.24a118.08 118.08 0 0 1 67.84-93.12l46.72-18.56a54.72 54.72 0 0 0 25.6-83.2zM248 390.4C248 308.8 296.32 256 371.2 256s122.88 52.8 122.88 134.4-48.32 134.4-122.88 134.4-123.2-52.48-123.2-134.4z m168 352a41.28 41.28 0 0 1-35.2 20.48 39.68 39.68 0 0 1-33.92-60.8l263.36-421.76a39.36 39.36 0 0 1 33.92-19.2 37.76 37.76 0 0 1 40.96 38.08 46.08 46.08 0 0 1-7.68 24z m237.12 25.6c-74.56 0-122.88-52.8-122.88-134.4s48.32-134.4 122.88-134.4 122.88 52.8 122.88 134.4-48.32 134.4-122.88 134.4z" stroke="#979797" p-id="5224"></path></svg>